<?xml version="1.0" encoding="utf-8"?>
<svg aria-hidden="true" focusable="false" data-prefix="fad" data-icon="dumbbell" class="svg-inline--fa fa-dumbbell fa-w-20" role="img" viewBox="0 0 512 512" width="512" height="512" xmlns="http://www.w3.org/2000/svg" xmlns:bx="https://boxy-svg.com">
  <defs>
    <bx:grid x="0" y="0" width="128" height="128"/>
  </defs>
  <rect width="512" height="512" style="stroke: rgb(255, 255, 255); fill: rgb(255, 255, 255);" rx="100" ry="100"/>
  <g style="" transform="matrix(0.957031, 0, 0, 0.957031, 10.799001, 35.788071)" bx:origin="0.50041 0.5">
    <path d="M 83.2 131.541 L 44.8 131.541 C 34.16 131.541 25.6 140.101 25.6 150.741 L 25.6 233.941 L 6.4 233.941 C 2.88 233.941 0 236.821 0 240.341 L 0 278.74 C 0 282.261 2.88 285.141 6.4 285.141 L 25.6 285.141 L 25.6 368.341 C 25.6 378.981 34.16 387.54 44.8 387.54 L 83.2 387.54 C 93.84 387.54 102.4 378.981 102.4 368.341 L 102.4 150.741 C 102.4 140.101 93.84 131.541 83.2 131.541 Z M 505.6 233.941 L 486.4 233.941 L 486.4 150.741 C 486.4 140.101 477.84 131.541 467.2 131.541 L 428.799 131.541 C 418.16 131.541 409.599 140.101 409.599 150.741 L 409.599 368.341 C 409.599 378.981 418.16 387.54 428.799 387.54 L 467.2 387.54 C 477.84 387.54 486.4 378.981 486.4 368.341 L 486.4 285.141 L 505.6 285.141 C 509.119 285.141 512 282.261 512 278.74 L 512 240.341 C 512 236.821 509.119 233.941 505.6 233.941 Z M 364.799 80.341 L 326.4 80.341 C 315.76 80.341 307.2 88.901 307.2 99.541 L 307.2 233.941 L 204.8 233.941 L 204.8 99.541 C 204.8 88.901 196.24 80.341 185.6 80.341 L 147.198 80.341 C 136.56 80.341 127.999 88.901 127.999 99.541 L 127.999 419.541 C 127.999 430.181 136.56 438.741 147.198 438.741 L 185.6 438.741 C 196.24 438.741 204.8 430.181 204.8 419.541 L 204.8 285.141 L 307.2 285.141 L 307.2 419.541 C 307.2 430.181 315.76 438.741 326.4 438.741 L 364.799 438.741 C 375.439 438.741 383.999 430.181 383.999 419.541 C 384.076 419.463 384.299 99.236 383.999 99.541 C 383.999 88.901 375.439 80.341 364.799 80.341 Z" style="fill: rgb(159, 159, 159);"/>
    <path d="M 295.761 189.294 C 271.267 189.294 258.129 204.344 258.129 231.589 L 258.129 302.019 C 258.129 324.724 265.613 344.468 294.761 344.468 C 324.862 344.5 333.097 325.432 333.097 301.895 L 333.097 230.304 C 333.097 204.437 320.38 189.294 295.761 189.294 Z M 304.255 305.029 C 304.255 313.887 301.987 319.246 295.551 319.246 C 289.11 319.246 286.692 314.229 286.692 305.464 L 286.692 227.92 C 286.692 219.555 289.243 214.537 295.551 214.537 C 302.242 214.537 304.255 219.943 304.255 227.478 Z M 247.466 230.103 C 247.466 206.562 239.044 189.268 210.284 189.268 C 178.208 189.268 172.538 211.302 172.538 229.568 L 172.538 232.294 C 172.584 235.32 175.076 237.741 178.106 237.695 L 194.766 237.695 C 197.796 237.741 200.291 235.326 200.342 232.294 L 200.342 228.788 C 200.342 218.571 202.552 213.619 208.824 213.619 C 215.804 213.619 217.002 218.537 217.002 229.861 C 217.002 246.582 212.526 252.039 198.874 271.566 C 182.981 294.284 175.006 309.129 173.148 332.692 C 172.675 339.12 177.802 344.572 184.248 344.5 L 239.671 344.5 C 242.697 344.546 245.189 342.133 245.241 339.108 L 245.241 324.171 C 245.189 321.145 242.697 318.729 239.671 318.778 L 206.825 318.778 C 208.026 308.321 216.76 294.595 224.494 284.492 C 239.137 264.39 247.466 253.925 247.466 230.103 Z M 394.904 169.891 L 413.796 151.003 C 417.732 147.078 417.732 140.71 413.796 136.786 L 399.579 122.57 C 395.654 118.631 389.286 118.631 385.362 122.57 L 368.051 139.862 C 341.459 116.246 308.223 101.414 272.89 97.39 L 272.89 56.161 L 296.301 56.161 C 301.846 56.161 306.338 51.671 306.338 46.127 L 306.338 26.058 C 306.338 20.515 301.846 16.024 296.301 16.024 L 209.333 16.024 C 203.79 16.024 199.299 20.515 199.299 26.058 L 199.299 46.127 C 199.299 51.671 203.79 56.161 209.333 56.161 L 232.747 56.161 L 232.747 97.482 C 146.121 107.425 78.88 180.932 78.88 270.241 C 78.88 366.334 156.726 444.183 252.815 444.183 C 348.908 444.183 426.757 366.334 426.757 270.241 C 426.815 234.293 415.683 199.222 394.904 169.891 Z M 252.815 404.04 C 149.819 404.04 85.446 292.54 136.946 203.343 C 188.442 114.141 317.194 114.141 368.69 203.343 C 380.436 223.684 386.617 246.753 386.617 270.241 C 386.643 344.149 326.723 404.068 252.815 404.04 Z" style="fill: rgb(98, 0, 238);"/>
  </g>
</svg>